<svg version="1.1" xmlns="http://www.w3.org/2000/svg" viewBox="0 0 1195.1797466625599 607.1231339717768" width="1195.1797466625599" height="607.1231339717768">
  <!-- svg-source:excalidraw -->
  
  <defs>
    <style class="style-fonts">
      @font-face {
        font-family: "Virgil";
        src: url("https://excalidraw.com/Virgil.woff2");
      }
      @font-face {
        font-family: "Cascadia";
        src: url("https://excalidraw.com/Cascadia.woff2");
      }
    </style>
    
  </defs>
  <g stroke-linecap="round" transform="translate(198.75388866255997 279.6231335138835) rotate(0 108 74.5)"><path d="M0 0 C81.93 -0.25, 161.65 0.39, 216 0 M0 0 C56.38 1.07, 112.99 0.12, 216 0 M216 0 C218.27 38.59, 218.18 77.31, 216 149 M216 0 C216.48 56.29, 217.31 110.05, 216 149 M216 149 C160.06 150.45, 100.1 151.07, 0 149 M216 149 C142.3 149.67, 68.8 149.78, 0 149 M0 149 C-1.04 94.78, -2.27 39.47, 0 0 M0 149 C1.07 109.94, 0.88 70.94, 0 0" stroke="#1e1e1e" stroke-width="2" fill="none"></path></g><g transform="translate(289.17576366256 342.1231335138835) rotate(0 17.578125 12)"><text x="17.578125" y="0" font-family="Cascadia, Segoe UI Emoji" font-size="20px" fill="#1e1e1e" text-anchor="middle" style="white-space: pre;" direction="ltr" dominant-baseline="text-before-edge">PIR</text></g><g stroke-linecap="round" transform="translate(198.75388866255997 448.12313397177684) rotate(0 108 74.5)"><path d="M0 0 C65.31 0.63, 130.21 1.56, 216 0 M0 0 C47.16 1.41, 94.77 2.1, 216 0 M216 0 C217.83 55.05, 216.87 110.87, 216 149 M216 0 C214.5 34.41, 214.56 67.45, 216 149 M216 149 C157.38 151.28, 101.45 151.89, 0 149 M216 149 C134.3 148.05, 51.61 147.74, 0 149 M0 149 C0.39 110.78, 1.78 69.13, 0 0 M0 149 C1.03 106.65, 1.59 66.11, 0 0" stroke="#1e1e1e" stroke-width="2" fill="none"></path></g><g transform="translate(289.17576366256 510.62313397177684) rotate(0 17.578125 12)"><text x="17.578125" y="0" font-family="Cascadia, Segoe UI Emoji" font-size="20px" fill="#1e1e1e" text-anchor="middle" style="white-space: pre;" direction="ltr" dominant-baseline="text-before-edge">RTC</text></g><g stroke-linecap="round" transform="translate(584.3031226625601 279.6231335725154) rotate(0 107.66369477105326 74.49999997068403)"><path d="M0 0 C44.64 -1.16, 90.1 -0.93, 215.33 0 M0 0 C55.97 -0.53, 110.19 0.17, 215.33 0 M215.33 0 C215.86 28.61, 212.99 62.41, 215.33 149 M215.33 0 C214.77 37.19, 216.55 76.43, 215.33 149 M215.33 149 C151.15 146.45, 89.39 146.87, 0 149 M215.33 149 C150 149.33, 87 149.19, 0 149 M0 149 C0.88 91.2, 0.59 34.47, 0 0 M0 149 C-0.03 105.93, 0.58 63.57, 0 0" stroke="#1e1e1e" stroke-width="2" fill="none"></path></g><g transform="translate(662.6699424336134 342.12313354319946) rotate(0 29.296875000000057 12.000000000000007)"><text x="29.296875" y="0" font-family="Cascadia, Segoe UI Emoji" font-size="20px" fill="#1e1e1e" text-anchor="middle" style="white-space: pre;" direction="ltr" dominant-baseline="text-before-edge">DC-DC</text></g><g stroke-linecap="round" transform="translate(198.75388866255997 111.12313351388349) rotate(0 108 74.5)"><path d="M0 0 C45.34 0.36, 87.48 0.68, 216 0 M0 0 C47.52 0.63, 95.2 0.14, 216 0 M216 0 C213.76 56.84, 215.1 113.05, 216 149 M216 0 C216.63 39.1, 216.92 78.17, 216 149 M216 149 C164.42 149.81, 109.62 149.88, 0 149 M216 149 C148.35 149.78, 80.72 149.92, 0 149 M0 149 C3.36 100.23, -0.07 46.57, 0 0 M0 149 C-1.27 106.87, -0.31 63.55, 0 0" stroke="#1e1e1e" stroke-width="2" fill="none"></path></g><g transform="translate(248.16013866255997 173.6231335138835) rotate(0 58.59375 12)"><text x="58.59375" y="0" font-family="Cascadia, Segoe UI Emoji" font-size="20px" fill="#1e1e1e" text-anchor="middle" style="white-space: pre;" direction="ltr" dominant-baseline="text-before-edge">PWR BUTTON</text></g><g stroke-linecap="round" transform="translate(969.1797466625599 279.6231335138835) rotate(0 108 74.5)"><path d="M0 0 C43.81 0.03, 89.98 2.19, 216 0 M0 0 C56.19 1.22, 112.06 -0.25, 216 0 M216 0 C216.09 52.25, 213.57 102.21, 216 149 M216 0 C215.54 42.17, 216.56 83.11, 216 149 M216 149 C158.32 149.71, 100.53 146.97, 0 149 M216 149 C135.21 151.67, 54.36 150.7, 0 149 M0 149 C-0.99 100.31, -1.35 48.77, 0 0 M0 149 C-1.07 91.7, 0.36 36.57, 0 0" stroke="#1e1e1e" stroke-width="2" fill="none"></path></g><g transform="translate(1059.6016216625599 342.1231335138835) rotate(0 17.578125 12)"><text x="17.578125" y="0" font-family="Cascadia, Segoe UI Emoji" font-size="20px" fill="#1e1e1e" text-anchor="middle" style="white-space: pre;" direction="ltr" dominant-baseline="text-before-edge">MCU</text></g><g stroke-linecap="round" transform="translate(585.1183765192377 383.2577273217011) rotate(0 33.56054438319245 22.68270309609119)"><path d="M0 0 C15.35 0.63, 29.66 -0.65, 67.12 0 M0 0 C23.26 0.5, 46.6 0.26, 67.12 0 M67.12 0 C66.57 16.37, 67.68 32.85, 67.12 45.37 M67.12 0 C66.78 12.6, 66.86 25.65, 67.12 45.37 M67.12 45.37 C41.45 45.88, 14.6 44.83, 0 45.37 M67.12 45.37 C45.12 45.02, 23.3 45.2, 0 45.37 M0 45.37 C-0.57 33.51, 0.21 22.15, 0 0 M0 45.37 C-0.27 27.72, 0.41 9.49, 0 0" stroke="#1e1e1e" stroke-width="2" fill="none"></path></g><g transform="translate(606.96017090243 393.9404304177923) rotate(0 11.71875 12)"><text x="11.71875" y="0" font-family="Cascadia, Segoe UI Emoji" font-size="20px" fill="#1e1e1e" text-anchor="middle" style="white-space: pre;" direction="ltr" dominant-baseline="text-before-edge">EN</text></g><g stroke-linecap="round"><g transform="translate(583.3536810460778 406.7910764549808) rotate(0 -83.40369677877737 0.029786702127353237)"><path d="M0 0 C-65.95 -0.12, -132.19 0.24, -166.81 0 M0 0 C-38.12 0.05, -76.22 0, -166.81 0" stroke="#1e1e1e" stroke-width="2" fill="none"></path></g></g><mask></mask><g stroke-linecap="round"><g transform="translate(414.8197522017476 217.47957047088735) rotate(0 22.905038571710804 -0.0490585929788665)"><path d="M0 0 C13.63 -0.2, 27.83 -0.04, 45.81 0 M0 0 C10.64 -0.13, 21.32 0, 45.81 0" stroke="#1e1e1e" stroke-width="2" fill="none"></path></g></g><mask></mask><g stroke-linecap="round"><g transform="translate(461.10701764874653 218.43394707804197) rotate(0 -0.08357651083218798 94.24468995651839)"><path d="M0 0 C-0.31 52.74, 0.08 105.01, 0 188.49 M0 0 C-0.18 52.27, -0.29 104.66, 0 188.49" stroke="#1e1e1e" stroke-width="2" fill="none"></path></g></g><mask></mask><g stroke-linecap="round"><g transform="translate(415.7066528925823 502.1157608786732) rotate(0 22.619601704706156 -0.04092675438209881)"><path d="M0 0 C10.11 -0.28, 20.55 -0.15, 45.24 0 M0 0 C12.5 0.11, 25.25 0.11, 45.24 0" stroke="#1e1e1e" stroke-width="2" fill="none"></path></g></g><mask></mask><g stroke-linecap="round"><g transform="translate(460.8762573820108 407.33363998282323) rotate(0 -0.021313920851298462 47.33355270238576)"><path d="M0 0 C-0.09 30.47, 0.02 60.83, 0 94.67 M0 0 C-0.11 23.81, 0.01 47.57, 0 94.67" stroke="#1e1e1e" stroke-width="2" fill="none"></path></g></g><mask></mask><g transform="translate(461.3303852765741 406.980453814544) rotate(0 0.00004999999998744897 0.00005000000000165983)" stroke="none"><path fill="#1e1e1e" d="M 3.14,-3.14 Q 3.14,-3.14 3.55,-2.55 3.97,-1.97 4.18,-1.28 4.40,-0.59 4.38,0.11 4.36,0.83 4.11,1.51 3.86,2.18 3.41,2.74 2.96,3.30 2.36,3.69 1.75,4.07 1.05,4.25 0.36,4.42 -0.35,4.36 -1.07,4.30 -1.73,4.02 -2.39,3.74 -2.92,3.26 -3.46,2.78 -3.81,2.15 -4.16,1.53 -4.30,0.82 -4.43,0.11 -4.34,-0.59 -4.24,-1.30 -3.92,-1.94 -3.60,-2.59 -3.09,-3.09 -2.59,-3.60 -1.94,-3.92 -1.30,-4.24 -0.59,-4.34 0.12,-4.43 0.82,-4.30 1.53,-4.16 2.15,-3.81 2.78,-3.46 3.26,-2.92 3.74,-2.39 4.02,-1.73 4.31,-1.07 4.36,-0.35 4.42,0.36 4.25,1.05 4.07,1.75 3.69,2.36 3.30,2.96 2.74,3.41 2.18,3.86 1.51,4.11 0.83,4.36 0.11,4.38 -0.60,4.40 -1.28,4.18 -1.97,3.97 -2.55,3.55 -3.14,3.13 -3.14,3.14 -3.14,3.14 -3.47,2.71 -3.80,2.29 -4.02,1.80 -4.24,1.32 -4.33,0.79 -4.43,0.26 -4.40,-0.26 -4.36,-0.80 -4.20,-1.31 -4.04,-1.82 -3.77,-2.28 -3.49,-2.73 -3.11,-3.11 -2.73,-3.49 -2.28,-3.77 -1.82,-4.05 -1.31,-4.20 -0.80,-4.36 -0.26,-4.40 0.26,-4.43 0.79,-4.33 1.32,-4.24 1.80,-4.02 2.29,-3.80 2.71,-3.47 3.14,-3.14 3.14,-3.14 L 3.14,-3.14 Z"></path></g><g transform="translate(535.2957783613424 406.980453814544) rotate(0 0.00004999999998744897 0.00005000000000165983)" stroke="none"><path fill="#1e1e1e" d="M 3.14,-3.14 Q 3.14,-3.14 3.55,-2.55 3.97,-1.97 4.18,-1.28 4.40,-0.59 4.38,0.11 4.36,0.83 4.11,1.51 3.86,2.18 3.41,2.74 2.96,3.30 2.36,3.69 1.75,4.07 1.05,4.25 0.36,4.42 -0.35,4.36 -1.07,4.30 -1.73,4.02 -2.39,3.74 -2.92,3.26 -3.46,2.78 -3.81,2.15 -4.16,1.53 -4.30,0.82 -4.43,0.11 -4.34,-0.59 -4.24,-1.30 -3.92,-1.94 -3.60,-2.59 -3.09,-3.09 -2.59,-3.60 -1.94,-3.92 -1.30,-4.24 -0.59,-4.34 0.12,-4.43 0.82,-4.30 1.53,-4.16 2.15,-3.81 2.78,-3.46 3.26,-2.92 3.74,-2.39 4.02,-1.73 4.31,-1.07 4.36,-0.35 4.42,0.36 4.25,1.05 4.07,1.75 3.69,2.36 3.30,2.96 2.74,3.41 2.18,3.86 1.51,4.11 0.83,4.36 0.11,4.38 -0.60,4.40 -1.28,4.18 -1.97,3.97 -2.55,3.55 -3.14,3.13 -3.14,3.14 -3.14,3.14 -3.47,2.71 -3.80,2.29 -4.02,1.80 -4.24,1.32 -4.33,0.79 -4.43,0.26 -4.40,-0.26 -4.36,-0.80 -4.20,-1.31 -4.04,-1.82 -3.77,-2.28 -3.49,-2.73 -3.11,-3.11 -2.73,-3.49 -2.28,-3.77 -1.82,-4.05 -1.31,-4.20 -0.80,-4.36 -0.26,-4.40 0.26,-4.43 0.79,-4.33 1.32,-4.24 1.80,-4.02 2.29,-3.80 2.71,-3.47 3.14,-3.14 3.14,-3.14 L 3.14,-3.14 Z"></path></g><g stroke-linecap="round"><g transform="translate(534.6992832558201 406.84248660981285) rotate(0 0.04218033133093968 47.60748640858537)"><path d="M0 0 C0.3 20.02, 0 39.79, 0 95.21 M0 0 C0.09 36.76, -0.15 73.56, 0 95.21" stroke="#1e1e1e" stroke-width="2" fill="none"></path></g></g><mask></mask><g stroke-linecap="round"><g transform="translate(534.3809520564291 501.86894803974235) rotate(0 178.6042100648204 -0.01260823561824509)"><path d="M0 0 C125.17 0.32, 250.23 0.28, 357.21 0 M0 0 C89.8 -0.32, 179.7 -0.35, 357.21 0" stroke="#1e1e1e" stroke-width="2" fill="none"></path></g></g><mask></mask><g stroke-linecap="round"><g transform="translate(891.0675055238539 502.06342470612117) rotate(0 0.14663036164131427 -77.04949198358028)"><path d="M0 0 C-0.22 -42.88, 0.16 -86.14, 0.36 -154.1 M0 0 C0.09 -58.2, 0.08 -116.53, 0.36 -154.1" stroke="#1e1e1e" stroke-width="2" fill="none"></path></g></g><mask></mask><g stroke-linecap="round"><g transform="translate(891.1343850786855 347.37950736659775) rotate(0 38.89806926212873 -0.029258833628588832)"><path d="M0 0 C23.97 -0.25, 48.37 0.13, 77.8 0 M0 0 C25.75 -0.08, 51.52 0.04, 77.8 0" stroke="#1e1e1e" stroke-width="2" fill="none"></path></g></g><mask></mask><g stroke-linecap="round"><g transform="translate(122.97414057399334 523.763353562684) rotate(0 -0.06625251215075423 -236.25941302577175)"><path d="M0 0 C-0.23 -152.71, -0.12 -305.73, 0 -472.52" stroke="#e03131" stroke-width="4.5" fill="none" stroke-dasharray="8 12"></path></g></g><mask></mask><g stroke-linecap="round"><g transform="translate(10 47.65804685799776) rotate(0 252.39857596491365 -0.04524825597499671)"><path d="M0 0 C195 -0.16, 389.9 -0.08, 504.8 0" stroke="#e03131" stroke-width="4.5" fill="none" stroke-dasharray="8 12"></path></g></g><mask></mask><g stroke-linecap="round"><g transform="translate(513.003911603256 47.65804685799776) rotate(0 -0.03439712732915723 131.35485392134936)"><path d="M0 0 C0.05 94.49, -0.2 189.25, 0 262.71" stroke="#e03131" stroke-width="4.5" fill="none" stroke-dasharray="8 12"></path></g></g><mask></mask><g stroke-linecap="round"><g transform="translate(511.21067127668465 308.57451437412516) rotate(0 35.86480653142644 -0.05038815193332624)"><path d="M0 0 C19.44 -0.19, 38.6 -0.06, 71.73 0" stroke="#e03131" stroke-width="4.5" fill="none" stroke-dasharray="8 12"></path></g></g><mask></mask><g stroke-linecap="round"><g transform="translate(123.870760737279 522.8667333993983) rotate(0 38.55466702128342 0.06850708716891063)"><path d="M0 0 C22.8 0.25, 45.81 0.1, 77.11 0" stroke="#e03131" stroke-width="4.5" fill="none" stroke-dasharray="8 12"></path></g></g><mask></mask><g stroke-linecap="round"><g transform="translate(122.97414057399334 363.2683443345505) rotate(0 38.10635693964059 -0.009217522258097688)"><path d="M0 0 C22.06 -0.09, 43.87 0.05, 76.21 0" stroke="#e03131" stroke-width="4.5" fill="none" stroke-dasharray="8 12"></path></g></g><mask></mask><g stroke-linecap="round"><g transform="translate(123.870760737279 183.94431167741828) rotate(0 37.20973677635493 0.021092255227854295)"><path d="M0 0 C26.59 0.15, 53.29 -0.06, 74.42 0" stroke="#e03131" stroke-width="4.5" fill="none" stroke-dasharray="8 12"></path></g></g><mask></mask><g transform="translate(12.689860489856983 10) rotate(0 87.89062500000003 12)"><text x="0" y="0" font-family="Cascadia, Segoe UI Emoji" font-size="20px" fill="#e03131" text-anchor="start" style="white-space: pre;" direction="ltr" dominant-baseline="text-before-edge">USB/BATTERY PWR</text></g><g stroke-linecap="round"><g transform="translate(799.0257436913816 305.8846538842682) rotate(0 84.73060543049496 -0.018992041747793564)"><path d="M0 0 C52.39 -0.09, 104.47 0.01, 169.46 0" stroke="#2f9e44" stroke-width="4.5" fill="none" stroke-dasharray="8 12"></path></g></g><mask></mask><g transform="translate(833.6042510445941 265.79653254636565) rotate(0 46.875 12)"><text x="0" y="0" font-family="Cascadia, Segoe UI Emoji" font-size="20px" fill="#2f9e44" text-anchor="start" style="white-space: pre;" direction="ltr" dominant-baseline="text-before-edge">3.3V PWR</text></g><g transform="translate(585.621864073478 477.8051129759826) rotate(0 140.625 24)"><text x="140.625" y="0" font-family="Cascadia, Segoe UI Emoji" font-size="20px" fill="#1971c2" text-anchor="middle" style="white-space: pre;" direction="ltr" dominant-baseline="text-before-edge">MCU INTERCEPTS DC-DC EN </text><text x="140.625" y="24" font-family="Cascadia, Segoe UI Emoji" font-size="20px" fill="#1971c2" text-anchor="middle" style="white-space: pre;" direction="ltr" dominant-baseline="text-before-edge">LINE AFTER BOOTUP</text></g><g stroke-linecap="round"><g transform="translate(416.60148207059575 359.11102449081227) rotate(0 39.88121373101717 0.04175965855004904)"><path d="M0 0 C21.57 0.06, 43.35 0.15, 79.76 0" stroke="#1971c2" stroke-width="4.5" fill="none" stroke-dasharray="1.5 10"></path></g></g><mask></mask><g stroke-linecap="round"><g transform="translate(486.86838245381654 358.1614717829309) rotate(0 -0.06367030525711925 105.87512692877183)"><path d="M0 0 C-0.27 77.16, -0.03 153.9, 0 211.75" stroke="#1971c2" stroke-width="4.5" fill="none" stroke-dasharray="1.5 10"></path></g></g><mask></mask><g stroke-linecap="round"><g transform="translate(413.92284853062034 568.9621729325934) rotate(0 258.193324251896 -0.04765989341140653)"><path d="M0 0 C173.56 -0.15, 347.18 -0.1, 516.39 0" stroke="#1971c2" stroke-width="4.5" fill="none" stroke-dasharray="1.5 10"></path></g></g><mask></mask><g stroke-linecap="round"><g transform="translate(931.2590497422937 568.012620224712) rotate(0 0.053245983582996814 -92.1066126644921)"><path d="M0 0 C0.23 -62.58, 0.01 -125.23, 0 -184.21" stroke="#1971c2" stroke-width="4.5" fill="none" stroke-dasharray="1.5 10"></path></g></g><mask></mask><g stroke-linecap="round"><g transform="translate(932.208602450175 381.900289479965) rotate(0 18.516277803686535 0.03171160131633144)"><path d="M0 0 C7.97 0.23, 15.93 -0.11, 37.03 0" stroke="#1971c2" stroke-width="4.5" fill="none" stroke-dasharray="1.5 10"></path></g></g><mask></mask><g transform="translate(628.4271340600137 544.4723298289625) rotate(0 87.89062499999994 24)"><text x="87.890625" y="0" font-family="Cascadia, Segoe UI Emoji" font-size="20px" fill="#1971c2" text-anchor="middle" style="white-space: pre;" direction="ltr" dominant-baseline="text-before-edge">PIR AND RTC </text><text x="87.890625" y="24" font-family="Cascadia, Segoe UI Emoji" font-size="20px" fill="#1971c2" text-anchor="middle" style="white-space: pre;" direction="ltr" dominant-baseline="text-before-edge">CONTROL SIGNALS</text></g></svg>