<?xml version="1.0" standalone="no"?>
<!DOCTYPE svg PUBLIC "-//W3C//DTD SVG 20010904//EN"
 "http://www.w3.org/TR/2001/REC-SVG-20010904/DTD/svg10.dtd">
<svg version="1.0" xmlns="http://www.w3.org/2000/svg"
 width="260.000000pt" height="260.000000pt" viewBox="0 0 260.000000 260.000000"
 preserveAspectRatio="xMidYMid meet">
<metadata>
Created by potrace 1.14, written by Peter Selinger 2001-2017
</metadata>
<g transform="translate(0.000000,260.000000) scale(0.100000,-0.100000)"
fill="#000000" stroke="none">
<path d="M960 2513 c-35 -12 -40 -35 -40 -180 0 -130 2 -145 20 -163 24 -24
49 -25 76 -6 17 13 19 29 21 161 2 143 1 147 -22 171 -25 25 -29 26 -55 17z"/>
<path d="M1173 2509 c-37 -14 -43 -41 -42 -184 1 -120 4 -140 20 -156 23 -23
47 -24 77 -3 21 14 22 21 22 162 0 81 -4 152 -8 158 -13 21 -47 32 -69 23z"/>
<path d="M1565 2496 c-23 -23 -23 -28 -22 -171 2 -132 4 -148 21 -161 27 -19
60 -18 79 4 14 15 17 43 18 158 0 76 -2 146 -6 155 -5 14 -45 39 -61 39 -3 0
-16 -11 -29 -24z"/>
<path d="M1347 2490 c-10 -14 -13 -56 -12 -166 1 -131 3 -148 20 -160 27 -20
59 -17 80 6 15 17 18 38 17 152 0 165 1 154 -18 172 -22 22 -70 20 -87 -4z"/>
<path d="M668 1910 l-168 -168 0 -455 0 -454 164 -163 c90 -89 170 -166 177
-171 8 -4 214 -8 459 -9 l445 0 169 170 169 169 0 454 0 454 -170 170 -171
171 -454 0 -453 1 -167 -169z"/>
<path d="M100 1648 c-40 -15 -47 -70 -12 -99 17 -13 46 -15 166 -14 132 1 148
3 161 21 19 26 19 47 -2 73 -17 19 -30 21 -156 23 -76 2 -147 0 -157 -4z"/>
<path d="M2210 1650 c-44 -6 -67 -45 -49 -83 6 -14 19 -27 28 -30 9 -2 78 -3
153 -3 118 2 139 4 157 20 26 23 27 47 3 76 -16 20 -27 22 -137 23 -66 1 -136
0 -155 -3z"/>
<path d="M113 1442 c-46 -7 -63 -73 -26 -104 10 -8 61 -12 155 -13 123 -1 143
1 164 18 29 23 31 58 3 83 -18 16 -38 18 -147 19 -70 0 -137 -1 -149 -3z"/>
<path d="M2190 1438 c-38 -14 -46 -66 -16 -96 12 -13 44 -16 160 -16 127 0
148 2 166 19 26 23 26 57 0 80 -18 16 -39 19 -156 19 -74 1 -144 -2 -154 -6z"/>
<path d="M94 1232 c-34 -18 -36 -65 -4 -93 16 -14 44 -16 164 -15 133 1 146 3
160 21 20 27 20 48 -2 75 -16 20 -27 21 -155 23 -96 1 -146 -2 -163 -11z"/>
<path d="M2209 1239 c-53 -11 -71 -52 -40 -90 19 -23 24 -24 158 -25 142 -1
179 6 188 36 7 22 -11 69 -28 76 -21 8 -242 10 -278 3z"/>
<path d="M81 1008 c-24 -25 -21 -66 6 -85 12 -9 61 -13 160 -13 130 0 145 2
163 20 26 26 25 50 0 78 -20 21 -30 22 -165 22 -135 0 -145 -1 -164 -22z"/>
<path d="M2187 1023 c-16 -4 -37 -40 -37 -64 0 -5 9 -18 20 -29 18 -18 33 -20
163 -20 132 0 145 2 166 21 25 24 22 64 -6 87 -16 12 -263 16 -306 5z"/>
<path d="M936 401 c-14 -16 -17 -40 -17 -142 0 -172 -1 -166 17 -183 23 -24
71 -20 88 7 20 31 18 296 -3 320 -18 23 -64 21 -85 -2z"/>
<path d="M1146 398 c-13 -18 -16 -51 -16 -156 0 -143 6 -167 47 -183 21 -8 30
-6 50 12 22 22 23 28 23 169 0 130 -2 149 -18 163 -26 24 -68 21 -86 -5z"/>
<path d="M1355 406 c-18 -13 -20 -28 -20 -161 -1 -164 6 -187 60 -187 54 -1
57 14 56 221 0 83 -4 108 -17 122 -20 23 -53 24 -79 5z"/>
<path d="M1556 398 c-20 -32 -20 -283 -1 -314 20 -31 50 -35 80 -12 25 19 25
21 25 167 0 131 -2 150 -18 164 -27 24 -69 21 -86 -5z"/>
</g>
</svg>
